<svg width="693" height="662" viewBox="0 0 693 662" fill="none" xmlns="http://www.w3.org/2000/svg">
<path d="M412.988 391.683L633.503 331.783L471.371 612.604L412.988 391.683Z" fill="#43B97F"/>
<path d="M83.6318 94.1778L237.061 84.5484L92.206 247.669L83.6318 94.1778Z" fill="#3A78F2"/>
<g clip-path="url(#clip0_1_3907)">
<rect x="121.238" y="113.727" width="398.206" height="388.634" rx="25" fill="#EA6621"/>
<path d="M586.438 177.193C559.523 204.108 515.886 204.108 488.971 177.193C462.057 150.279 462.057 106.641 488.971 79.7267L586.438 177.193Z" fill="#FFBB25"/>
<path d="M86.2381 444.186C119.202 425.155 161.352 436.449 180.383 469.413C199.415 502.376 188.121 544.526 155.157 563.558L86.2381 444.186Z" fill="#C280D2"/>
</g>
<rect x="189" y="63.934" width="305" height="438"/>
<rect x="84.9797" y="155.078" width="393.721" height="391.916" rx="24" transform="rotate(-13.2118 84.9797 155.078)" stroke="#ECECEC" stroke-width="2"/>
<defs>
<clipPath id="clip0_1_3907">
<rect x="121.238" y="113.727" width="398.206" height="388.634" rx="25" fill="white"/>
</clipPath>
</defs>
</svg>
